<svg width="21" height="21" viewBox="0 0 21 21" fill="none" xmlns="http://www.w3.org/2000/svg">
<path d="M9.68806 11.5895V16.797H11.3119V10.0871H11.1905C10.362 10.0871 9.68806 10.761 9.68806 11.5895Z" fill="#195DF6"/>
<path d="M10.5 4.203C9.89731 4.203 9.40701 4.6933 9.40701 5.29598C9.40701 5.89863 9.89731 6.38893 10.5 6.38893C11.1026 6.38893 11.5929 5.89863 11.5929 5.29598C11.5929 4.6933 11.1026 4.203 10.5 4.203Z" fill="#195DF6"/>
<path d="M17.9246 3.07535C15.9414 1.09221 13.3046 0 10.5 0C7.69535 0 5.05858 1.09221 3.07535 3.07535C1.09221 5.05858 0 7.69535 0 10.5C0 13.3046 1.09221 15.9414 3.07535 17.9246C5.05858 19.9078 7.69535 21 10.5 21C13.3046 21 15.9414 19.9078 17.9246 17.9246C19.9078 15.9414 21 13.3046 21 10.5C21 7.69535 19.9078 5.05858 17.9246 3.07535ZM12.5424 17.4122C12.5424 17.752 12.267 18.0275 11.9272 18.0275H9.07282C8.73305 18.0275 8.45759 17.752 8.45759 17.4122V11.5895C8.45759 10.0825 9.68354 8.85659 11.1905 8.85659H11.9272C12.267 8.85659 12.5424 9.13205 12.5424 9.47182V17.4122ZM10.5 7.61943C9.21884 7.61943 8.17655 6.57714 8.17655 5.29602C8.17655 4.01486 9.21884 2.97257 10.5 2.97257C11.7811 2.97257 12.8234 4.01486 12.8234 5.29602C12.8234 6.5771 11.7811 7.61943 10.5 7.61943Z" fill="#195DF6"/>
</svg>
