<svg width="19" height="19" viewBox="0 0 19 19" fill="none" xmlns="http://www.w3.org/2000/svg">
<path d="M18.7678 17.6493L13.3648 12.2462C14.4114 10.9534 15.0415 9.31074 15.0415 7.5216C15.0415 3.37489 11.6674 0.000823975 7.52074 0.000823975C3.37403 0.000823975 0 3.37485 0 7.52156C0 11.6683 3.37406 15.0423 7.52077 15.0423C9.30991 15.0423 10.9526 14.4122 12.2454 13.3656L17.6485 18.7687C17.8028 18.923 18.0055 19.0006 18.2082 19.0006C18.4109 19.0006 18.6135 18.923 18.7679 18.7687C19.0774 18.4592 19.0774 17.9588 18.7678 17.6493ZM7.52077 13.459C4.24646 13.459 1.58333 10.7959 1.58333 7.52156C1.58333 4.24725 4.24646 1.58412 7.52077 1.58412C10.7951 1.58412 13.4582 4.24725 13.4582 7.52156C13.4582 10.7959 10.795 13.459 7.52077 13.459Z" fill="#393939"/>
</svg>
