<svg width="42" height="42" viewBox="0 0 42 42" fill="none" xmlns="http://www.w3.org/2000/svg">
<circle cx="21" cy="21" r="20" fill="#5895ee" stroke="white" stroke-width="2"/>
<g clip-path="url(#clip0)">
<path d="M32.2278 29.1428L19.151 16.423C18.804 16.085 18.6431 15.591 18.72 15.1021C19.009 13.2791 18.513 11.6671 17.2881 10.4431C16.3321 9.48714 15.1041 8.98713 13.8941 9.00213C12.7981 9.02613 11.7542 9.41411 10.8742 10.1251C10.7472 10.2281 10.6782 10.3851 10.6892 10.5481C10.7012 10.7111 10.7912 10.8581 10.9312 10.9421L13.9871 12.775C13.8962 13.694 13.3532 14.501 12.5212 14.931L9.78619 13.29C9.63319 13.1991 9.42521 13.2051 9.26921 13.29C9.11823 13.3731 9.01923 13.527 9.0092 13.7C8.92619 15.094 9.40721 16.418 10.3612 17.43C11.3032 18.4289 12.6292 19.001 14.0001 19.001C14.2231 19.001 14.5481 18.941 15.0231 18.814C15.5441 18.673 16.1061 18.827 16.4841 19.216L29.1469 32.2327C29.6428 32.7287 30.3009 33.0007 30.9998 33.0007C32.1028 33.0007 32.9998 32.1037 32.9998 30.9998C32.9998 30.3008 32.7278 29.6428 32.2278 29.1428Z" fill="white"/>
<path d="M32.8529 10.1471L31.8529 9.14714C31.7009 8.99414 31.4689 8.95715 31.2759 9.05315L27.2759 11.0531C27.107 11.1381 27 11.3111 27 11.5001V12.7931L21.998 17.797L24.234 19.9719L29.2069 15H30.4999C30.6889 15 30.8619 14.893 30.9469 14.724L32.9469 10.7241C33.0439 10.5321 33.0059 10.2991 32.8529 10.1471Z" fill="white"/>
<path d="M17.3679 21.5589C17.2759 21.5759 17.1819 21.5859 17.0859 21.5859C16.9619 21.5859 16.8429 21.6319 16.7509 21.7149L9.85302 27.9388C9.31101 28.4798 9 29.2298 9 29.9998C9 30.7657 9.31101 31.5157 9.84599 32.0507L9.93898 32.1477C10.48 32.6887 11.2299 32.9997 11.9999 32.9997C12.7769 32.9997 13.5079 32.6967 14.0709 32.1337C14.0709 32.1337 20.2438 25.4708 20.3498 25.3568C20.4458 25.2628 20.4998 25.1348 20.4998 25.0008C20.4998 24.9328 20.5108 24.8658 20.5198 24.7988L17.3679 21.5589Z" fill="white"/>
</g>
<defs>
<clipPath id="clip0">
<rect width="24" height="24" fill="white" transform="translate(9 9)"/>
</clipPath>
</defs>
</svg>
