<svg width="50" height="64" viewBox="0 0 50 64" fill="none" xmlns="http://www.w3.org/2000/svg">
<path d="M0.120674 26.7224C0.920793 35.9014 13.0448 52.5267 19.4494 59.7671C25.2137 67.4333 28.9763 62.9613 31.6182 59.7671C38.6631 51.249 51.4213 34.5548 49.5 20.5C47.2939 4.36175 30.9775 -1.56271 19.4494 0.353842C7.92123 2.2704 -1.16014 12.0288 0.120674 26.7224Z" fill="white"/>
<circle cx="25" cy="24" r="21" fill="#FA8F43"/>
<g clip-path="url(#clip0)">
<path d="M36.2278 32.1428L23.151 19.423C22.804 19.085 22.6431 18.591 22.72 18.1021C23.009 16.2791 22.513 14.6671 21.2881 13.4431C20.3321 12.4871 19.1041 11.9871 17.8941 12.0021C16.7981 12.0261 15.7542 12.4141 14.8742 13.1251C14.7472 13.2281 14.6782 13.3851 14.6892 13.5481C14.7012 13.7111 14.7912 13.8581 14.9312 13.9421L17.9871 15.775C17.8962 16.694 17.3532 17.501 16.5212 17.931L13.7862 16.29C13.6332 16.1991 13.4252 16.2051 13.2692 16.29C13.1182 16.3731 13.0192 16.527 13.0092 16.7C12.9262 18.094 13.4072 19.418 14.3612 20.43C15.3032 21.4289 16.6292 22.001 18.0001 22.001C18.2231 22.001 18.5481 21.941 19.0231 21.814C19.5441 21.673 20.1061 21.827 20.4841 22.216L33.1469 35.2327C33.6428 35.7287 34.3009 36.0007 34.9998 36.0007C36.1028 36.0007 36.9998 35.1037 36.9998 33.9998C36.9998 33.3008 36.7278 32.6428 36.2278 32.1428Z" fill="white"/>
<path d="M36.8529 13.1471L35.8529 12.1471C35.7009 11.9941 35.4689 11.9572 35.2759 12.0532L31.2759 14.0531C31.107 14.1381 31 14.3111 31 14.5001V15.7931L25.998 20.797L28.234 22.9719L33.2069 18H34.4999C34.6889 18 34.8619 17.893 34.9469 17.724L36.9469 13.7241C37.0439 13.5321 37.0059 13.2991 36.8529 13.1471Z" fill="white"/>
<path d="M21.3679 24.5589C21.2759 24.5759 21.1819 24.5859 21.0859 24.5859C20.9619 24.5859 20.8429 24.6319 20.7509 24.7149L13.853 30.9388C13.311 31.4798 13 32.2298 13 32.9998C13 33.7657 13.311 34.5157 13.846 35.0507L13.939 35.1477C14.48 35.6887 15.2299 35.9997 15.9999 35.9997C16.7769 35.9997 17.5079 35.6967 18.0709 35.1337C18.0709 35.1337 24.2438 28.4708 24.3498 28.3568C24.4458 28.2628 24.4998 28.1348 24.4998 28.0008C24.4998 27.9328 24.5108 27.8658 24.5198 27.7988L21.3679 24.5589Z" fill="white"/>
</g>
<defs>
<clipPath id="clip0">
<rect width="24" height="24" fill="white" transform="translate(13 12)"/>
</clipPath>
</defs>
</svg>
